<svg width="30" height="30" viewBox="0 0 30 30" fill="none" xmlns="http://www.w3.org/2000/svg">
<path d="M26.2509 25.7813C26.1084 25.7813 25.9679 25.7489 25.8399 25.6864C25.7118 25.624 25.5997 25.5332 25.512 25.421C24.1726 23.7059 22.9298 22.3823 21.2159 21.4952C19.6298 20.6766 17.6376 20.2495 15.0009 20.1698V24.8438C15.0003 25.0268 14.9462 25.2056 14.8453 25.3582C14.7443 25.5109 14.6009 25.6306 14.4327 25.7027C14.2645 25.7747 14.0788 25.796 13.8987 25.7639C13.7185 25.7317 13.5517 25.6476 13.4189 25.5217L3.10636 15.678C3.01472 15.5905 2.94177 15.4853 2.89194 15.3687C2.8421 15.2522 2.81641 15.1268 2.81641 15.0001C2.81641 14.8733 2.8421 14.7479 2.89194 14.6314C2.94177 14.5149 3.01472 14.4097 3.10636 14.3221L13.4189 4.47839C13.5517 4.35258 13.7185 4.26841 13.8987 4.23626C14.0788 4.20411 14.2645 4.22539 14.4327 4.29747C14.6009 4.36954 14.7443 4.48927 14.8453 4.64188C14.9462 4.7945 15.0003 4.97332 15.0009 5.15632V9.86491C19.345 10.0647 22.5817 11.676 24.6308 14.662C26.3282 17.1352 27.1884 20.5606 27.1884 24.8438C27.1884 25.0925 27.0896 25.3309 26.9138 25.5067C26.738 25.6825 26.4995 25.7813 26.2509 25.7813Z" fill="#42ACD5"/>
</svg>
