<svg width="24" height="24" viewBox="0 0 24 24" fill="none" xmlns="http://www.w3.org/2000/svg">
<path d="M12 10C14.2091 10 16 8.20914 16 6C16 3.79086 14.2091 2 12 2C9.79086 2 8 3.79086 8 6C8 8.20914 9.79086 10 12 10Z" fill="#F43C3C"/>
<path fill-rule="evenodd" clip-rule="evenodd" d="M18 15.75C17.6199 15.75 17.246 15.8464 16.9132 16.03C16.5804 16.2136 16.2995 16.4785 16.0968 16.8001C15.8941 17.1216 15.7762 17.4893 15.754 17.8687C15.7318 18.2482 15.8061 18.627 15.97 18.97L18.97 15.97C18.6672 15.8249 18.3357 15.7497 18 15.75ZM20.03 17.03L17.03 20.03C17.4499 20.2305 17.9216 20.2959 18.3801 20.2173C18.8387 20.1386 19.2617 19.9197 19.5907 19.5907C19.9197 19.2617 20.1386 18.8387 20.2173 18.3801C20.2959 17.9216 20.2305 17.4499 20.03 17.03ZM14.25 18C14.25 17.0054 14.6451 16.0516 15.3483 15.3483C16.0516 14.6451 17.0054 14.25 18 14.25C18.9946 14.25 19.9484 14.6451 20.6517 15.3483C21.3549 16.0516 21.75 17.0054 21.75 18C21.75 18.9946 21.3549 19.9484 20.6517 20.6517C19.9484 21.3549 18.9946 21.75 18 21.75C17.0054 21.75 16.0516 21.3549 15.3483 20.6517C14.6451 19.9484 14.25 18.9946 14.25 18Z" fill="#F43C3C"/>
<path d="M15.327 13.48C14.5417 13.9445 13.8911 14.6057 13.4392 15.3983C12.9873 16.1909 12.7498 17.0876 12.75 18C12.75 19.07 13.07 20.064 13.619 20.893C13.0977 20.9643 12.558 21.0003 12 21.001C8.134 21.001 5 19.211 5 17.001C5 14.791 8.134 13.001 12 13.001C13.204 13.001 14.337 13.175 15.327 13.481" fill="#F43C3C"/>
</svg>
