<svg width="25" height="25" viewBox="0 0 25 25" fill="none" xmlns="http://www.w3.org/2000/svg">
<mask id="mask0_3207_1090" style="mask-type:alpha" maskUnits="userSpaceOnUse" x="0" y="0" width="25" height="25">
<rect width="25" height="25" fill="#D9D9D9"/>
</mask>
<g mask="url(#mask0_3207_1090)">
<path d="M12.4998 12.5003C11.354 12.5003 10.3731 12.0923 9.55713 11.2764C8.74116 10.4604 8.33317 9.47949 8.33317 8.33366C8.33317 7.18783 8.74116 6.20692 9.55713 5.39095C10.3731 4.57498 11.354 4.16699 12.4998 4.16699C13.6457 4.16699 14.6266 4.57498 15.4425 5.39095C16.2585 6.20692 16.6665 7.18783 16.6665 8.33366C16.6665 9.47949 16.2585 10.4604 15.4425 11.2764C14.6266 12.0923 13.6457 12.5003 12.4998 12.5003ZM4.1665 20.8337V17.917C4.1665 17.3267 4.31841 16.7842 4.62223 16.2894C4.92605 15.7946 5.3297 15.417 5.83317 15.1566C6.90956 14.6184 8.00331 14.2147 9.11442 13.9456C10.2255 13.6765 11.354 13.542 12.4998 13.542C13.6457 13.542 14.7741 13.6765 15.8853 13.9456C16.9964 14.2147 18.0901 14.6184 19.1665 15.1566C19.67 15.417 20.0736 15.7946 20.3774 16.2894C20.6813 16.7842 20.8332 17.3267 20.8332 17.917V20.8337H4.1665ZM6.24984 18.7503H18.7498V17.917C18.7498 17.726 18.7021 17.5524 18.6066 17.3962C18.5111 17.2399 18.3853 17.1184 18.229 17.0316C17.2915 16.5628 16.3453 16.2113 15.3905 15.9769C14.4356 15.7425 13.4721 15.6253 12.4998 15.6253C11.5276 15.6253 10.5641 15.7425 9.60921 15.9769C8.65435 16.2113 7.70817 16.5628 6.77067 17.0316C6.61442 17.1184 6.48855 17.2399 6.39307 17.3962C6.29758 17.5524 6.24984 17.726 6.24984 17.917V18.7503ZM12.4998 10.417C13.0728 10.417 13.5632 10.213 13.9712 9.80501C14.3792 9.39703 14.5832 8.90658 14.5832 8.33366C14.5832 7.76074 14.3792 7.27029 13.9712 6.8623C13.5632 6.45432 13.0728 6.25033 12.4998 6.25033C11.9269 6.25033 11.4365 6.45432 11.0285 6.8623C10.6205 7.27029 10.4165 7.76074 10.4165 8.33366C10.4165 8.90658 10.6205 9.39703 11.0285 9.80501C11.4365 10.213 11.9269 10.417 12.4998 10.417Z" fill="#42ACD5"/>
</g>
</svg>
